<svg id="Capa_1" data-name="Capa 1" xmlns="http://www.w3.org/2000/svg" viewBox="0 0 300 132.13">
  <defs>
    <style>
      .cls-1 {
        fill: #1d1d1b;
        fill-rule: evenodd;
      }
    </style>
  </defs>
  <path class="cls-1" d="M270.84,206.93l-19.56,26.42-7.4-26.69s-1.75-5.42-7.56-22.73h-21.1l-51,.14H125.76l-3.84,16.25h35.82c18.62,0,30,7.53,26.82,20.88-3.43,14.53-19.68,20.74-37,20.74h-6.47l8.32-35.54H120.47l-12.29,51.92h41.1c30.92,0,60.25-16.25,65.54-37.12.92-3.84.79-13.48-1.58-19.16a5.17,5.17,0,0,0-.27-.79c-.13-.14-.27-1.06.27-1.2.26-.13.79.4.79.53s.26.67.52,1.2l26.16,73.85,66.61-75.18,28.14-.13h6.87c18.63,0,30.13,7.53,26.95,20.88-3.44,14.53-19.81,20.74-37.12,20.74h-6.62L334,206.4H305.07l-12.29,51.92h41.1c30.91,0,60.5-16.25,65.4-37.12s-16.65-37.13-47.84-37.13h-61.3c-16.25,19.15-19.3,22.86-19.3,22.86Z" transform="translate(-100 -183.93)"/>
  <path class="cls-1" d="M241.64,275.9c-78.22,0-141.64,9-141.64,20.08s63.42,20.09,141.64,20.09,141.79-9,141.79-20.09S320,275.9,241.64,275.9Zm-5,27.22c-18,0-32.37-3-32.37-6.74s14.4-6.74,32.37-6.74,32.24,3,32.24,6.74S254.45,303.12,236.62,303.12Z" transform="translate(-100 -183.93)"/>
</svg>